<svg id="logo-eracom" xmlns="http://www.w3.org/2000/svg" viewBox="0 0 99.2129 20.9228">
  <rect x="1.3262" width="11.793" height="2.372"/>
  <path d="M84.543,5.8a4.5529,4.5529,0,0,1,4.4463,2.8735A5.4084,5.4084,0,0,1,93.8594,5.8c3.69,0,5.3535,2.6313,5.3535,5.8379V20.53H96.3692v-7.955c0-2.3291-.6953-4.3863-3.1758-4.3863-2.6006,0-3.63,2.36-3.63,4.5982V20.53H86.7207V12c0-2.2378-.7558-3.8111-3.0244-3.8111-2.0869,0-3.66,1.8755-3.66,4.7183V20.53H77.1934V9.2783c0-.7564-.03-2.148-.1211-3.0855h2.6914c.0606.7261.1211,1.7544.1211,2.3594h.0908A5.0026,5.0026,0,0,1,84.543,5.8Z"/>
  <path d="M66.0313,20.9228a7.44,7.44,0,0,1-7.7129-7.5918,7.7306,7.7306,0,0,1,15.456,0A7.465,7.465,0,0,1,66.0313,20.9228Zm0-12.7637c-3.0547,0-4.7783,2.45-4.7783,5.1719s1.7236,5.2022,4.7783,5.2022c3.0849,0,4.7783-2.4795,4.7783-5.2022S69.1162,8.1591,66.0313,8.1591Z"/>
  <path d="M54.5371,9.8227A4.0465,4.0465,0,0,0,51.24,8.1889c-2.9639,0-4.6885,2.42-4.6885,5.1724,0,2.7226,1.7246,5.1719,4.7187,5.1719a4.3083,4.3083,0,0,0,3.4483-1.5723l1.9053,1.7236a6.8846,6.8846,0,0,1-5.3536,2.2383c-4.416,0-7.7128-2.9941-7.7128-7.5615A7.3139,7.3139,0,0,1,51.21,5.8a6.8963,6.8963,0,0,1,5.3838,2.3593Z"/>
  <path d="M37.5684,11.2441c0-2.1172-1.4219-3.1455-3.5391-3.1455a5.9085,5.9085,0,0,0-4.083,1.6636l-1.5127-1.815A8.5533,8.5533,0,0,1,34.3008,5.8c4.1143,0,5.9893,2.45,5.9893,5.6259v6.2608A15.7951,15.7951,0,0,0,40.502,20.53H37.9307a9.3227,9.3227,0,0,1-.2412-2.0566h-.0908a5.4822,5.4822,0,0,1-4.81,2.4189c-2.2686,0-5.2022-1.1191-5.2022-4.416,0-4.3252,5.1416-4.8388,9.9815-4.8388Zm-.6963,2.45c-2.8125,0-6.3818.3018-6.3818,2.7217,0,1.6943,1.5127,2.2383,2.9336,2.2383A3.905,3.905,0,0,0,37.5684,14.45v-.7559Z"/>
  <path d="M14.2774,14.208H2.9043a4.5822,4.5822,0,0,0,4.6573,4.3554,4.9244,4.9244,0,0,0,4.1748-2.1777l1.9961,1.6035a7.3928,7.3928,0,0,1-6.1709,2.9336A7.2331,7.2331,0,0,1,0,13.3916,7.2637,7.2637,0,0,1,7.4112,5.8c4.2343,0,6.8955,2.8735,6.8955,7.44C14.3067,13.5429,14.3067,13.8759,14.2774,14.208Zm-2.8438-2.1172A3.8161,3.8161,0,0,0,7.4112,8.038a4.4447,4.4447,0,0,0-4.5069,4.0528Z"/>
  <path d="M18.0586,6.1928H20.75c.0606.7261.1211,1.815.1211,2.42h.0908A4.8565,4.8565,0,0,1,25.3477,5.8a4.3728,4.3728,0,0,1,1.1191.1211l-.1211,2.6313a5.677,5.677,0,0,0-1.3007-.1514c-2.7217,0-4.0225,2.2085-4.0225,4.5972V20.53H18.18V9.2783C18.18,8.5219,18.1494,7.13,18.0586,6.1928Z"/>
</svg>
